<svg width="56" height="40" viewBox="0 0 56 40" fill="none" xmlns="http://www.w3.org/2000/svg">
<path d="M13.8148 40C10.0052 40 6.74997 38.6813 4.04898 36.044C1.34799 33.4066 -0.00167296 30.1831 1.55624e-06 26.3736C1.55624e-06 23.1083 0.983779 20.1988 2.95134 17.6452C4.91889 15.0916 7.49346 13.4589 10.675 12.7473C11.6379 9.35636 13.4279 6.50968 16.0452 4.20722C18.6625 1.90476 21.6867 0.502355 25.1177 0V20.2826L21.0989 16.3893L17.5824 19.9058L27.6295 29.9529L37.6766 19.9058L34.1601 16.3893L30.1413 20.2826V0C34.4532 0.586081 38.0433 2.52266 40.9118 5.80973C43.7802 9.09681 45.2136 12.9582 45.2119 17.394C48.1005 17.7289 50.4975 18.9748 52.4031 21.1316C54.3087 23.2883 55.2607 25.8102 55.259 28.697C55.259 31.8367 54.1597 34.5059 51.9611 36.7046C49.7624 38.9032 47.0941 40.0017 43.956 40H13.8148Z" fill="white"/>
</svg>
